<svg xmlns="http://www.w3.org/2000/svg" version="1.1" xmlns:xlink="http://www.w3.org/1999/xlink" xmlns:svgjs="http://svgjs.dev/svgjs" width="1000" height="196" viewBox="0 0 1000 196"><g transform="matrix(1,0,0,1,-0.6059848479471839,0.36310361023186033)"><svg viewBox="0 0 396 78" data-background-color="#ffffff" preserveAspectRatio="xMidYMid meet" height="196" width="1000" xmlns="http://www.w3.org/2000/svg" xmlns:xlink="http://www.w3.org/1999/xlink"><g id="tight-bounds" transform="matrix(1,0,0,1,0.23996999978709255,-0.14450041631675958)"><svg viewBox="0 0 395.52 78.28900083263355" height="78.28900083263355" width="395.52"><g><svg viewBox="0 0 527.3562579836428 104.38459375095044" height="78.28900083263355" width="395.52"><g transform="matrix(1,0,0,1,131.83625798364272,0)"><svg viewBox="0 0 395.52 104.38459375095044" height="104.38459375095044" width="395.52"><g><svg viewBox="0 0 395.52 104.38459375095044" height="104.38459375095044" width="395.52"><g><svg viewBox="0 0 395.52 104.38459375095044" height="104.38459375095044" width="395.52"><path d="M394.594 22.388C392.735 11.553 387.435 8.541 387.435 8.541 371.165-2.619 350.86-0.213 332.619 1.39 300.414 1.455 268.339 3.839 236.208 5.117 168.767 5.312 100.749 2.105 33.643 10.015 27.339 12.442-6.54 10.492 1.121 23.775 3.129 29.301 10.456 35.434 10.232 40.505 11.236 41.393 12.631 39.356 13.226 40.635 15.309 44.08 18.711 42.455 21.501 44.492 17.614 49.931 20.403 54.46 23.062 59.206 18.377 60.441 12.371 59.856 9.675 63.952 9.396 66.921 7.89 66.357 6.235 66.227 5.026 66.141 2.59 66.466 2.999 67.397 4.394 70.583-1.594 72.425 2.162 75.545-0.422 78.926 3.948 81.851 3.353 85.514 3.278 86.25 3.687 86.879 4.338 87.052 7.22 87.984 3.018 89.804 3.464 91.776 33.029 105.255 65.104 95.937 95.394 102.135 103.259 97.801 97.346 103.673 100.489 102.763 102.943 101.701 104.728 106.1 107.499 103.608 107.927 102.893 107.276 101.203 108.8 101.528 109.6 101.701 110.307 101.658 110.418 100.661 110.586 99.166 109.117 100.098 108.726 99.318 112.947 95.374 111.906 104.757 115.866 104.367 115.68 103.218 114.528 101.571 116.889 101.788 119.232 100.141 119.306 98.776 121.389 102.481 121.463 103.283 121.835 103.847 122.43 104.237 128.938 100.206 135.409 105.667 142.233 103.847 146.417 101.853 150.433 104.93 154.672 104.172 156.16 103.565 157.666 102.481 159.098 104.302 176.632 104.692 195.319 103.067 211.943 104.367 256.364 101.94 303.836 105.364 350.674 102.156 361.719 100.921 373.192 99.166 383.958 97.757 383.958 97.757 392.679 93.9 392.679 76.564S394.538 61.395 394.817 47.591C395.096 33.787 396.398 33.224 394.538 22.388Z" opacity="1" fill="#1098ca" data-fill-palette-color="tertiary"></path><g transform="matrix(1,0,0,1,55.76832,26.230666666666664)"><svg width="283.98335999999995" viewBox="1.85 -38.5 284.91999999999996 52.1" height="51.923260417617115" data-palette-color="#ffffff"><path d="M1.85-13.9Q1.85-18.05 3.58-21.25 5.3-24.45 8.28-26.23 11.25-28 14.85-28L14.85-28Q18.1-28 20.53-26.73 22.95-25.45 24.4-23.55L24.4-23.55 24.4-27.55 30.15-27.55 30.15 0 24.4 0 24.4-4.1Q22.95-2.15 20.45-0.85 17.95 0.45 14.75 0.45L14.75 0.45Q11.2 0.45 8.25-1.38 5.3-3.2 3.58-6.48 1.85-9.75 1.85-13.9L1.85-13.9ZM24.4-13.8Q24.4-16.65 23.23-18.75 22.05-20.85 20.15-21.95 18.25-23.05 16.05-23.05L16.05-23.05Q13.85-23.05 11.95-21.98 10.05-20.9 8.88-18.82 7.7-16.75 7.7-13.9L7.7-13.9Q7.7-11.05 8.88-8.9 10.05-6.75 11.98-5.63 13.9-4.5 16.05-4.5L16.05-4.5Q18.25-4.5 20.15-5.6 22.05-6.7 23.23-8.83 24.4-10.95 24.4-13.8L24.4-13.8ZM53.5-27.55L61.3-5.1 69.09-27.55 75.15-27.55 64.65 0 57.85 0 47.4-27.55 53.5-27.55ZM82.34-31.2Q80.79-31.2 79.74-32.25 78.69-33.3 78.69-34.85L78.69-34.85Q78.69-36.4 79.74-37.45 80.79-38.5 82.34-38.5L82.34-38.5Q83.84-38.5 84.89-37.45 85.94-36.4 85.94-34.85L85.94-34.85Q85.94-33.3 84.89-32.25 83.84-31.2 82.34-31.2L82.34-31.2ZM79.44-27.55L85.14-27.55 85.14 0 79.44 0 79.44-27.55ZM95.49-27.55L103.29-5.1 111.09-27.55 117.14-27.55 106.64 0 99.84 0 89.39-27.55 95.49-27.55ZM124.34-31.2Q122.79-31.2 121.74-32.25 120.69-33.3 120.69-34.85L120.69-34.85Q120.69-36.4 121.74-37.45 122.79-38.5 124.34-38.5L124.34-38.5Q125.84-38.5 126.89-37.45 127.94-36.4 127.94-34.85L127.94-34.85Q127.94-33.3 126.89-32.25 125.84-31.2 124.34-31.2L124.34-31.2ZM121.44-27.55L127.14-27.55 127.14 0 121.44 0 121.44-27.55ZM132.74-13.9Q132.74-18.05 134.46-21.25 136.19-24.45 139.16-26.23 142.14-28 145.79-28L145.79-28Q148.49-28 151.11-26.83 153.74-25.65 155.29-23.7L155.29-23.7 155.29-37 161.04-37 161.04 0 155.29 0 155.29-4.15Q153.89-2.15 151.41-0.85 148.94 0.45 145.74 0.45L145.74 0.45Q142.14 0.45 139.16-1.38 136.19-3.2 134.46-6.48 132.74-9.75 132.74-13.9L132.74-13.9ZM155.29-13.8Q155.29-16.65 154.11-18.75 152.94-20.85 151.04-21.95 149.14-23.05 146.94-23.05L146.94-23.05Q144.74-23.05 142.84-21.98 140.94-20.9 139.76-18.82 138.59-16.75 138.59-13.9L138.59-13.9Q138.59-11.05 139.76-8.9 140.94-6.75 142.86-5.63 144.79-4.5 146.94-4.5L146.94-4.5Q149.14-4.5 151.04-5.6 152.94-6.7 154.11-8.83 155.29-10.95 155.29-13.8L155.29-13.8ZM181.53-37L187.23-37 187.23 0 181.53 0 181.53-37ZM206.68 0.45Q202.78 0.45 199.63-1.33 196.48-3.1 194.68-6.33 192.88-9.55 192.88-13.8L192.88-13.8Q192.88-18 194.73-21.25 196.58-24.5 199.78-26.25 202.98-28 206.93-28L206.93-28Q210.88-28 214.08-26.25 217.28-24.5 219.13-21.25 220.98-18 220.98-13.8L220.98-13.8Q220.98-9.6 219.08-6.35 217.18-3.1 213.9-1.33 210.63 0.45 206.68 0.45L206.68 0.45ZM206.68-4.5Q208.88-4.5 210.8-5.55 212.73-6.6 213.93-8.7 215.13-10.8 215.13-13.8L215.13-13.8Q215.13-16.8 213.98-18.88 212.83-20.95 210.93-22 209.03-23.05 206.83-23.05L206.83-23.05Q204.63-23.05 202.75-22 200.88-20.95 199.78-18.88 198.68-16.8 198.68-13.8L198.68-13.8Q198.68-9.35 200.95-6.93 203.23-4.5 206.68-4.5L206.68-4.5ZM237.73-28Q240.93-28 243.4-26.73 245.88-25.45 247.28-23.55L247.28-23.55 247.28-27.55 253.03-27.55 253.03 0.45Q253.03 4.25 251.43 7.23 249.83 10.2 246.8 11.9 243.78 13.6 239.58 13.6L239.58 13.6Q233.98 13.6 230.28 10.98 226.58 8.35 226.08 3.85L226.08 3.85 231.73 3.85Q232.38 6 234.5 7.33 236.63 8.65 239.58 8.65L239.58 8.65Q243.03 8.65 245.15 6.55 247.28 4.45 247.28 0.45L247.28 0.45 247.28-4.15Q245.83-2.2 243.35-0.88 240.88 0.45 237.73 0.45L237.73 0.45Q234.13 0.45 231.15-1.38 228.18-3.2 226.45-6.48 224.73-9.75 224.73-13.9L224.73-13.9Q224.73-18.05 226.45-21.25 228.18-24.45 231.15-26.23 234.13-28 237.73-28L237.73-28ZM247.28-13.8Q247.28-16.65 246.1-18.75 244.93-20.85 243.03-21.95 241.13-23.05 238.93-23.05L238.93-23.05Q236.73-23.05 234.83-21.98 232.93-20.9 231.75-18.82 230.58-16.75 230.58-13.9L230.58-13.9Q230.58-11.05 231.75-8.9 232.93-6.75 234.85-5.63 236.78-4.5 238.93-4.5L238.93-4.5Q241.13-4.5 243.03-5.6 244.93-6.7 246.1-8.83 247.28-10.95 247.28-13.8L247.28-13.8ZM272.47 0.45Q268.57 0.45 265.42-1.33 262.27-3.1 260.47-6.33 258.67-9.55 258.67-13.8L258.67-13.8Q258.67-18 260.52-21.25 262.37-24.5 265.57-26.25 268.77-28 272.72-28L272.72-28Q276.67-28 279.87-26.25 283.07-24.5 284.92-21.25 286.77-18 286.77-13.8L286.77-13.8Q286.77-9.6 284.87-6.35 282.97-3.1 279.7-1.33 276.42 0.45 272.47 0.45L272.47 0.45ZM272.47-4.5Q274.67-4.5 276.6-5.55 278.52-6.6 279.72-8.7 280.92-10.8 280.92-13.8L280.92-13.8Q280.92-16.8 279.77-18.88 278.62-20.95 276.72-22 274.82-23.05 272.62-23.05L272.62-23.05Q270.42-23.05 268.55-22 266.67-20.95 265.57-18.88 264.47-16.8 264.47-13.8L264.47-13.8Q264.47-9.35 266.75-6.93 269.02-4.5 272.47-4.5L272.47-4.5Z" opacity="1" transform="matrix(1,0,0,1,0,0)" fill="#ffffff" class="undefined-text-0" data-fill-palette-color="quaternary" id="text-0"></path></svg></g></svg></g></svg></g></svg></g><g transform="matrix(1,0,0,1,0,4.105794020870718)"><svg viewBox="0 0 119.57842235729333 96.17300570920901" height="96.17300570920901" width="119.57842235729333"><g><svg xmlns="http://www.w3.org/2000/svg" xmlns:xlink="http://www.w3.org/1999/xlink" version="1.1" x="0" y="0" viewBox="0 9.786 100.00034525290006 80.42699999999999" enable-background="new 0 0 100 100" xml:space="preserve" width="119.57842235729333" height="96.17300570920901" class="icon-icon-0" data-fill-palette-color="accent" id="icon-0"><path d="M49.942 52.994c13.552-0.488 27.103-0.977 40.653-1.465-2.527-4.177-3.159-7.831-7.989-8.461-7.229-0.94-14.458-1.883-21.688-2.826-14.023-1.827-28.05-3.654-42.075-5.48C20.101 36.792 39.724 53.361 49.942 52.994z" fill="#ffffff" data-fill-palette-color="accent"></path><path d="M0 9.786c4.391 7.257 26.615 23.072 32.953 23.886 17.33 2.231 34.657 4.46 51.986 6.688-3.393-5.607-4.18-9.35-10.312-10.959-8.904-2.341-17.812-4.683-26.717-7.023C31.94 18.182 15.97 13.984 0 9.786z" fill="#ffffff" data-fill-palette-color="accent"></path><path d="M63.108 66.207c10.413-2.219 20.826-4.439 31.241-6.66-2.028-3.346-2.034-5.359-5.827-5.189-6.158 0.273-12.314 0.549-18.471 0.822-11.343 0.506-22.686 1.014-34.028 1.518C37.298 58.064 54.94 67.947 63.108 66.207z" fill="#ffffff" data-fill-palette-color="accent"></path><path d="M87.682 90.213c5.725-3.719 7.262-7.721 10.519-13.807 3.651-6.824 1.257-7.844-2.821-14.596-0.417-0.688-5.842 0.232-6.453 0.904-0.745 0.818-0.248 5.455-0.294 6.496C88.315 76.211 87.998 83.213 87.682 90.213z" fill="#ffffff" data-fill-palette-color="accent"></path><path d="M86.35 63.447c-3.795 0.809-8.604 0.191-9.572 4.229-1.373 5.736-2.746 11.475-4.12 17.211C81.904 82.678 86.028 71.582 86.35 63.447z" fill="#ffffff" data-fill-palette-color="accent"></path><path d="M74.666 66.121c-9.148 1.953-8.956 4.611-12.879 13.18C68.007 78.711 73.811 71.941 74.666 66.121z" fill="#ffffff" data-fill-palette-color="accent"></path></svg></g></svg></g></svg></g><defs></defs></svg><rect width="395.52" height="78.28900083263355" fill="none" stroke="none" visibility="hidden"></rect></g></svg></g></svg>