<?xml version="1.0" standalone="no"?>
<!DOCTYPE svg PUBLIC "-//W3C//DTD SVG 20010904//EN"
 "http://www.w3.org/TR/2001/REC-SVG-20010904/DTD/svg10.dtd">
<svg version="1.0" xmlns="http://www.w3.org/2000/svg"
 width="228.000000pt" height="228.000000pt" viewBox="0 0 228.000000 228.000000"
 preserveAspectRatio="xMidYMid meet">
<metadata>
Created by potrace 1.14, written by Peter Selinger 2001-2017
</metadata>
<g transform="translate(0.000000,228.000000) scale(0.100000,-0.100000)"
fill="#000000" stroke="none">
<path d="M35 1976 c71 -87 329 -293 473 -379 164 -97 197 -109 322 -122 30 -4
66 -8 80 -10 31 -5 143 -19 230 -30 25 -2 61 -7 80 -10 19 -3 51 -7 70 -9 19
-3 91 -12 160 -21 69 -9 143 -19 165 -21 22 -3 51 -7 65 -10 14 -2 63 -9 110
-14 47 -6 95 -13 108 -15 12 -2 22 -2 22 0 0 3 -23 43 -50 89 -77 130 -68 126
-430 222 -174 47 -431 114 -450 119 -14 3 -145 37 -510 131 -74 19 -149 39
-166 45 -17 5 -40 11 -51 13 -18 4 -203 51 -247 63 -14 4 -10 -6 19 -41z"/>
<path d="M430 1456 c0 -3 37 -37 83 -77 102 -88 299 -222 392 -265 136 -63
143 -64 340 -59 165 4 446 13 605 20 36 2 95 3 133 4 l67 1 -21 42 c-71 140
-77 143 -324 172 -27 3 -61 8 -75 11 -14 2 -45 7 -70 10 -25 3 -54 7 -65 9
-11 2 -47 7 -80 10 -60 7 -110 13 -175 21 -52 7 -188 24 -245 31 -27 3 -59 7
-70 9 -11 1 -47 6 -80 9 -33 4 -67 9 -75 11 -8 2 -42 7 -75 10 -33 3 -71 8
-85 10 -90 16 -180 26 -180 21z"/>
<path d="M1928 1015 c-2 -2 -88 -6 -193 -10 -104 -3 -224 -8 -265 -10 -86 -4
-346 -16 -435 -20 -33 -1 -95 -4 -139 -5 -78 -3 -79 -3 -55 -21 33 -25 182
-103 249 -129 135 -55 296 -85 355 -67 11 3 31 8 45 11 14 2 124 25 245 51
228 48 237 50 295 62 19 4 37 8 40 8 3 1 19 5 37 9 l32 7 -30 50 c-17 27 -36
52 -42 56 -11 7 -133 13 -139 8z"/>
<path d="M2067 845 c-26 -7 -50 -15 -54 -19 -4 -3 -8 -64 -9 -134 -2 -168 -15
-455 -21 -464 -11 -19 22 -5 57 23 51 41 106 121 169 245 56 111 65 159 37
213 -27 52 -86 141 -94 142 -4 0 -14 2 -22 3 -8 2 -36 -2 -63 -9z"/>
<path d="M1850 795 c-74 -17 -85 -22 -98 -48 -10 -20 -29 -85 -37 -128 -2 -8
-10 -44 -19 -80 -9 -35 -18 -73 -20 -84 -2 -11 -10 -42 -16 -68 -7 -26 -11
-50 -8 -52 11 -11 109 48 152 91 74 76 137 224 148 344 3 31 0 35 -22 37 -14
1 -50 -4 -80 -12z"/>
<path d="M1616 734 c-91 -33 -132 -79 -187 -210 -23 -55 -25 -64 -11 -64 35 0
119 49 165 96 43 43 107 153 107 183 0 14 -26 13 -74 -5z"/>
</g>
</svg>
